<mxfile host="app.diagrams.net" modified="2023-03-25T07:22:12.890Z" agent="Mozilla/5.0 (Macintosh; Intel Mac OS X 10.15; rv:109.0) Gecko/20100101 Firefox/111.0" etag="t7yZxCGVsPSr-agM2xIv" version="21.1.1" type="github">
  <diagram name="Page-1" id="e7e014a7-5840-1c2e-5031-d8a46d1fe8dd">
    <mxGraphModel dx="1137" dy="662" grid="1" gridSize="10" guides="1" tooltips="1" connect="1" arrows="1" fold="1" page="1" pageScale="1" pageWidth="1169" pageHeight="826" background="none" math="0" shadow="0">
      <root>
        <mxCell id="0" />
        <mxCell id="1" parent="0" />
        <mxCell id="2" value="User" style="swimlane;whiteSpace=wrap" parent="1" vertex="1">
          <mxGeometry x="164.5" y="128" width="280" height="692" as="geometry" />
        </mxCell>
        <mxCell id="12" value="" style="edgeStyle=elbowEdgeStyle;elbow=horizontal;strokeColor=#FF0000;endArrow=open;endFill=1;rounded=0" parent="2" source="10" edge="1">
          <mxGeometry width="100" height="100" relative="1" as="geometry">
            <mxPoint x="160" y="290" as="sourcePoint" />
            <mxPoint x="60" y="135" as="targetPoint" />
            <Array as="points">
              <mxPoint x="30" y="250" />
            </Array>
          </mxGeometry>
        </mxCell>
        <mxCell id="ZsyH5gxH1IwlVLbYp223-42" value="" style="ellipse;html=1;shape=startState;fillColor=#000000;strokeColor=#ff0000;" vertex="1" parent="2">
          <mxGeometry x="115.5" y="42" width="30" height="30" as="geometry" />
        </mxCell>
        <mxCell id="ZsyH5gxH1IwlVLbYp223-43" value="" style="edgeStyle=orthogonalEdgeStyle;html=1;verticalAlign=bottom;endArrow=open;endSize=8;strokeColor=#ff0000;rounded=0;" edge="1" source="ZsyH5gxH1IwlVLbYp223-42" parent="2">
          <mxGeometry relative="1" as="geometry">
            <mxPoint x="130.5" y="132" as="targetPoint" />
          </mxGeometry>
        </mxCell>
        <mxCell id="ZsyH5gxH1IwlVLbYp223-44" value="Masuk halaman bahasa isyarat" style="rounded=1;whiteSpace=wrap;html=1;arcSize=40;fontColor=#000000;fillColor=#ffffc0;strokeColor=#ff0000;" vertex="1" parent="2">
          <mxGeometry x="70.5" y="142" width="120" height="40" as="geometry" />
        </mxCell>
        <mxCell id="ZsyH5gxH1IwlVLbYp223-48" value="Memilih sub bahasa isyarat" style="rounded=1;whiteSpace=wrap;html=1;arcSize=40;fontColor=#000000;fillColor=#ffffc0;strokeColor=#ff0000;" vertex="1" parent="2">
          <mxGeometry x="70.5" y="222" width="120" height="40" as="geometry" />
        </mxCell>
        <mxCell id="3" value="System" style="swimlane;whiteSpace=wrap" parent="1" vertex="1">
          <mxGeometry x="444.5" y="128" width="280" height="692" as="geometry" />
        </mxCell>
        <mxCell id="ZsyH5gxH1IwlVLbYp223-46" value="Menampilkan halaman bahasa isyarat" style="rounded=1;whiteSpace=wrap;html=1;arcSize=40;fontColor=#000000;fillColor=#ffffc0;strokeColor=#ff0000;" vertex="1" parent="3">
          <mxGeometry x="85.5" y="142" width="120" height="40" as="geometry" />
        </mxCell>
        <mxCell id="ZsyH5gxH1IwlVLbYp223-50" value="Menampilkan detail halmaan bahasa isyarat" style="rounded=1;whiteSpace=wrap;html=1;arcSize=40;fontColor=#000000;fillColor=#ffffc0;strokeColor=#ff0000;" vertex="1" parent="3">
          <mxGeometry x="85.5" y="222" width="120" height="40" as="geometry" />
        </mxCell>
        <mxCell id="ZsyH5gxH1IwlVLbYp223-51" value="" style="edgeStyle=orthogonalEdgeStyle;html=1;verticalAlign=bottom;endArrow=open;endSize=8;strokeColor=#ff0000;rounded=0;entryX=0.5;entryY=0;entryDx=0;entryDy=0;" edge="1" source="ZsyH5gxH1IwlVLbYp223-50" parent="3" target="ZsyH5gxH1IwlVLbYp223-53">
          <mxGeometry relative="1" as="geometry">
            <mxPoint x="145.5" y="322" as="targetPoint" />
          </mxGeometry>
        </mxCell>
        <mxCell id="ZsyH5gxH1IwlVLbYp223-53" value="" style="ellipse;html=1;shape=endState;fillColor=#000000;strokeColor=#ff0000;" vertex="1" parent="3">
          <mxGeometry x="245.5" y="622" width="30" height="30" as="geometry" />
        </mxCell>
        <mxCell id="ZsyH5gxH1IwlVLbYp223-45" value="" style="edgeStyle=orthogonalEdgeStyle;html=1;verticalAlign=bottom;endArrow=open;endSize=8;strokeColor=#ff0000;rounded=0;entryX=0;entryY=0.5;entryDx=0;entryDy=0;" edge="1" source="ZsyH5gxH1IwlVLbYp223-44" parent="1" target="ZsyH5gxH1IwlVLbYp223-46">
          <mxGeometry relative="1" as="geometry">
            <mxPoint x="295" y="370" as="targetPoint" />
          </mxGeometry>
        </mxCell>
        <mxCell id="ZsyH5gxH1IwlVLbYp223-47" value="" style="edgeStyle=orthogonalEdgeStyle;html=1;verticalAlign=bottom;endArrow=open;endSize=8;strokeColor=#ff0000;rounded=0;entryX=0.5;entryY=0;entryDx=0;entryDy=0;" edge="1" source="ZsyH5gxH1IwlVLbYp223-46" parent="1" target="ZsyH5gxH1IwlVLbYp223-48">
          <mxGeometry relative="1" as="geometry">
            <mxPoint x="590" y="370" as="targetPoint" />
            <Array as="points">
              <mxPoint x="590" y="330" />
              <mxPoint x="295" y="330" />
            </Array>
          </mxGeometry>
        </mxCell>
        <mxCell id="ZsyH5gxH1IwlVLbYp223-49" value="" style="edgeStyle=orthogonalEdgeStyle;html=1;verticalAlign=bottom;endArrow=open;endSize=8;strokeColor=#ff0000;rounded=0;entryX=0;entryY=0.5;entryDx=0;entryDy=0;" edge="1" source="ZsyH5gxH1IwlVLbYp223-48" parent="1" target="ZsyH5gxH1IwlVLbYp223-50">
          <mxGeometry relative="1" as="geometry">
            <mxPoint x="295" y="450" as="targetPoint" />
          </mxGeometry>
        </mxCell>
        <mxCell id="ZsyH5gxH1IwlVLbYp223-54" value="User klik action simpan / share" style="rounded=1;whiteSpace=wrap;html=1;arcSize=40;fontColor=#000000;fillColor=#ffffc0;strokeColor=#ff0000;" vertex="1" parent="1">
          <mxGeometry x="219.5" y="400" width="120" height="40" as="geometry" />
        </mxCell>
        <mxCell id="ZsyH5gxH1IwlVLbYp223-55" value="Lakukan penyimpanan internal atau bagikan" style="rounded=1;whiteSpace=wrap;html=1;arcSize=40;fontColor=#000000;fillColor=#ffffc0;strokeColor=#ff0000;" vertex="1" parent="1">
          <mxGeometry x="525" y="400" width="120" height="40" as="geometry" />
        </mxCell>
        <mxCell id="ZsyH5gxH1IwlVLbYp223-56" value="" style="edgeStyle=orthogonalEdgeStyle;html=1;verticalAlign=bottom;endArrow=open;endSize=8;strokeColor=#ff0000;rounded=0;entryX=0.5;entryY=0;entryDx=0;entryDy=0;" edge="1" parent="1" source="ZsyH5gxH1IwlVLbYp223-55" target="ZsyH5gxH1IwlVLbYp223-57">
          <mxGeometry relative="1" as="geometry">
            <mxPoint x="585" y="500" as="targetPoint" />
          </mxGeometry>
        </mxCell>
        <mxCell id="ZsyH5gxH1IwlVLbYp223-57" value="Berhasil" style="rhombus;whiteSpace=wrap;html=1;fontColor=#000000;fillColor=#ffffc0;strokeColor=#ff0000;" vertex="1" parent="1">
          <mxGeometry x="465" y="510" width="80" height="40" as="geometry" />
        </mxCell>
        <mxCell id="ZsyH5gxH1IwlVLbYp223-58" value="no" style="edgeStyle=orthogonalEdgeStyle;html=1;align=left;verticalAlign=bottom;endArrow=open;endSize=8;strokeColor=#ff0000;rounded=0;entryX=0.5;entryY=0;entryDx=0;entryDy=0;" edge="1" parent="1" source="ZsyH5gxH1IwlVLbYp223-57" target="ZsyH5gxH1IwlVLbYp223-62">
          <mxGeometry x="-1" relative="1" as="geometry">
            <mxPoint x="645" y="530" as="targetPoint" />
          </mxGeometry>
        </mxCell>
        <mxCell id="ZsyH5gxH1IwlVLbYp223-59" value="yes" style="edgeStyle=orthogonalEdgeStyle;html=1;align=left;verticalAlign=top;endArrow=open;endSize=8;strokeColor=#ff0000;rounded=0;entryX=0.461;entryY=0.007;entryDx=0;entryDy=0;entryPerimeter=0;" edge="1" parent="1" source="ZsyH5gxH1IwlVLbYp223-57" target="ZsyH5gxH1IwlVLbYp223-60">
          <mxGeometry x="-1" relative="1" as="geometry">
            <mxPoint x="505" y="610" as="targetPoint" />
          </mxGeometry>
        </mxCell>
        <mxCell id="ZsyH5gxH1IwlVLbYp223-60" value="Snacbar sukses" style="rounded=1;whiteSpace=wrap;html=1;arcSize=40;fontColor=#000000;fillColor=#ffffc0;strokeColor=#ff0000;" vertex="1" parent="1">
          <mxGeometry x="450" y="610" width="120" height="40" as="geometry" />
        </mxCell>
        <mxCell id="ZsyH5gxH1IwlVLbYp223-61" value="" style="edgeStyle=orthogonalEdgeStyle;html=1;verticalAlign=bottom;endArrow=open;endSize=8;strokeColor=#ff0000;rounded=0;entryX=0;entryY=0.5;entryDx=0;entryDy=0;" edge="1" parent="1" source="ZsyH5gxH1IwlVLbYp223-60" target="ZsyH5gxH1IwlVLbYp223-53">
          <mxGeometry relative="1" as="geometry">
            <mxPoint x="694.5" y="745" as="targetPoint" />
            <Array as="points">
              <mxPoint x="510" y="745" />
              <mxPoint x="690" y="745" />
            </Array>
          </mxGeometry>
        </mxCell>
        <mxCell id="ZsyH5gxH1IwlVLbYp223-62" value="Snackbar error" style="rounded=1;whiteSpace=wrap;html=1;arcSize=40;fontColor=#000000;fillColor=#ffffc0;strokeColor=#ff0000;" vertex="1" parent="1">
          <mxGeometry x="580" y="610" width="120" height="40" as="geometry" />
        </mxCell>
        <mxCell id="ZsyH5gxH1IwlVLbYp223-63" value="" style="edgeStyle=orthogonalEdgeStyle;html=1;verticalAlign=bottom;endArrow=open;endSize=8;strokeColor=#ff0000;rounded=0;entryX=0.5;entryY=0;entryDx=0;entryDy=0;" edge="1" parent="1" source="ZsyH5gxH1IwlVLbYp223-62" target="ZsyH5gxH1IwlVLbYp223-53">
          <mxGeometry relative="1" as="geometry">
            <mxPoint x="694.5" y="745" as="targetPoint" />
          </mxGeometry>
        </mxCell>
        <mxCell id="ZsyH5gxH1IwlVLbYp223-64" value="" style="edgeStyle=orthogonalEdgeStyle;html=1;verticalAlign=bottom;endArrow=open;endSize=8;strokeColor=#ff0000;rounded=0;entryX=0;entryY=0.5;entryDx=0;entryDy=0;" edge="1" parent="1" source="ZsyH5gxH1IwlVLbYp223-54" target="ZsyH5gxH1IwlVLbYp223-55">
          <mxGeometry relative="1" as="geometry">
            <mxPoint x="279.5" y="500" as="targetPoint" />
          </mxGeometry>
        </mxCell>
      </root>
    </mxGraphModel>
  </diagram>
</mxfile>
